<mxfile host="app.diagrams.net" modified="2023-08-31T14:33:31.847Z" agent="Mozilla/5.0 (Windows NT 10.0; Win64; x64) AppleWebKit/537.36 (KHTML, like Gecko) Chrome/116.0.0.0 Safari/537.36 Edg/116.0.1938.62" etag="Xhnv1R6Q_TuGo85Z56CL" version="21.7.1" type="device">
  <diagram name="Page-1" id="9csiGRajn9hbeka8NCRL">
    <mxGraphModel dx="1794" dy="418" grid="1" gridSize="10" guides="1" tooltips="1" connect="1" arrows="1" fold="1" page="1" pageScale="1" pageWidth="827" pageHeight="1169" math="0" shadow="0">
      <root>
        <mxCell id="0" />
        <mxCell id="1" parent="0" />
        <mxCell id="At3crt5vRcggLfKBgVWZ-295" style="edgeStyle=none;rounded=0;orthogonalLoop=1;jettySize=auto;html=1;exitX=0;exitY=0.25;exitDx=0;exitDy=0;entryX=1;entryY=0.5;entryDx=0;entryDy=0;" edge="1" parent="1" target="At3crt5vRcggLfKBgVWZ-299">
          <mxGeometry relative="1" as="geometry">
            <mxPoint x="150" y="320" as="sourcePoint" />
            <mxPoint x="-10" y="240" as="targetPoint" />
          </mxGeometry>
        </mxCell>
        <mxCell id="At3crt5vRcggLfKBgVWZ-296" style="edgeStyle=none;rounded=0;orthogonalLoop=1;jettySize=auto;html=1;exitX=0;exitY=0.25;exitDx=0;exitDy=0;entryX=1;entryY=0.5;entryDx=0;entryDy=0;" edge="1" parent="1" target="At3crt5vRcggLfKBgVWZ-300">
          <mxGeometry relative="1" as="geometry">
            <mxPoint x="150" y="320" as="sourcePoint" />
            <mxPoint x="-10" y="290" as="targetPoint" />
          </mxGeometry>
        </mxCell>
        <mxCell id="At3crt5vRcggLfKBgVWZ-297" style="edgeStyle=none;rounded=0;orthogonalLoop=1;jettySize=auto;html=1;exitX=0;exitY=0.25;exitDx=0;exitDy=0;entryX=1;entryY=0.5;entryDx=0;entryDy=0;" edge="1" parent="1" target="At3crt5vRcggLfKBgVWZ-301">
          <mxGeometry relative="1" as="geometry">
            <mxPoint x="150" y="320" as="sourcePoint" />
            <mxPoint x="-10" y="340" as="targetPoint" />
          </mxGeometry>
        </mxCell>
        <mxCell id="At3crt5vRcggLfKBgVWZ-298" value="Korisnik" style="rounded=0;whiteSpace=wrap;html=1;" vertex="1" parent="1">
          <mxGeometry x="150" y="300" width="100" height="40" as="geometry" />
        </mxCell>
        <mxCell id="At3crt5vRcggLfKBgVWZ-299" value="Sifra" style="ellipse;whiteSpace=wrap;html=1;" vertex="1" parent="1">
          <mxGeometry x="-90" y="240" width="80" height="40" as="geometry" />
        </mxCell>
        <mxCell id="At3crt5vRcggLfKBgVWZ-300" value="Korisničko ime" style="ellipse;whiteSpace=wrap;html=1;" vertex="1" parent="1">
          <mxGeometry x="-90" y="290" width="80" height="40" as="geometry" />
        </mxCell>
        <mxCell id="At3crt5vRcggLfKBgVWZ-301" value="Email" style="ellipse;whiteSpace=wrap;html=1;" vertex="1" parent="1">
          <mxGeometry x="-90" y="340" width="80" height="40" as="geometry" />
        </mxCell>
        <mxCell id="At3crt5vRcggLfKBgVWZ-302" value="Radi" style="rhombus;whiteSpace=wrap;html=1;" vertex="1" parent="1">
          <mxGeometry x="330" y="295" width="60" height="50" as="geometry" />
        </mxCell>
        <mxCell id="At3crt5vRcggLfKBgVWZ-303" value="" style="endArrow=none;html=1;rounded=0;exitX=1;exitY=0.5;exitDx=0;exitDy=0;entryX=0;entryY=0.5;entryDx=0;entryDy=0;" edge="1" parent="1" source="At3crt5vRcggLfKBgVWZ-298" target="At3crt5vRcggLfKBgVWZ-302">
          <mxGeometry width="50" height="50" relative="1" as="geometry">
            <mxPoint x="500" y="330" as="sourcePoint" />
            <mxPoint x="550" y="280" as="targetPoint" />
          </mxGeometry>
        </mxCell>
        <mxCell id="At3crt5vRcggLfKBgVWZ-304" value="N" style="text;html=1;strokeColor=none;fillColor=none;align=center;verticalAlign=middle;whiteSpace=wrap;rounded=0;" vertex="1" parent="1">
          <mxGeometry x="270" y="300" width="40" height="20" as="geometry" />
        </mxCell>
        <mxCell id="At3crt5vRcggLfKBgVWZ-305" value="1" style="text;html=1;strokeColor=none;fillColor=none;align=center;verticalAlign=middle;whiteSpace=wrap;rounded=0;" vertex="1" parent="1">
          <mxGeometry x="430" y="300" width="40" height="20" as="geometry" />
        </mxCell>
        <mxCell id="At3crt5vRcggLfKBgVWZ-306" style="edgeStyle=none;rounded=0;orthogonalLoop=1;jettySize=auto;html=1;exitX=0.5;exitY=0;exitDx=0;exitDy=0;entryX=0.5;entryY=1;entryDx=0;entryDy=0;" edge="1" parent="1" source="At3crt5vRcggLfKBgVWZ-310" target="At3crt5vRcggLfKBgVWZ-323">
          <mxGeometry relative="1" as="geometry" />
        </mxCell>
        <mxCell id="At3crt5vRcggLfKBgVWZ-307" style="edgeStyle=none;rounded=0;orthogonalLoop=1;jettySize=auto;html=1;exitX=0.5;exitY=0;exitDx=0;exitDy=0;entryX=0.5;entryY=1;entryDx=0;entryDy=0;" edge="1" parent="1" source="At3crt5vRcggLfKBgVWZ-310" target="At3crt5vRcggLfKBgVWZ-324">
          <mxGeometry relative="1" as="geometry" />
        </mxCell>
        <mxCell id="At3crt5vRcggLfKBgVWZ-308" style="edgeStyle=none;rounded=0;orthogonalLoop=1;jettySize=auto;html=1;exitX=0.5;exitY=0;exitDx=0;exitDy=0;entryX=0.5;entryY=1;entryDx=0;entryDy=0;" edge="1" parent="1" source="At3crt5vRcggLfKBgVWZ-310" target="At3crt5vRcggLfKBgVWZ-325">
          <mxGeometry relative="1" as="geometry" />
        </mxCell>
        <mxCell id="At3crt5vRcggLfKBgVWZ-309" value="" style="edgeStyle=orthogonalEdgeStyle;rounded=0;orthogonalLoop=1;jettySize=auto;html=1;" edge="1" parent="1" source="At3crt5vRcggLfKBgVWZ-310" target="At3crt5vRcggLfKBgVWZ-302">
          <mxGeometry relative="1" as="geometry" />
        </mxCell>
        <mxCell id="At3crt5vRcggLfKBgVWZ-310" value="Kupovina paketa&amp;nbsp;" style="rounded=0;whiteSpace=wrap;html=1;" vertex="1" parent="1">
          <mxGeometry x="470" y="300" width="100" height="40" as="geometry" />
        </mxCell>
        <mxCell id="At3crt5vRcggLfKBgVWZ-311" value="" style="endArrow=none;html=1;rounded=0;exitX=1;exitY=0.5;exitDx=0;exitDy=0;entryX=0;entryY=0.5;entryDx=0;entryDy=0;" edge="1" parent="1" source="At3crt5vRcggLfKBgVWZ-302" target="At3crt5vRcggLfKBgVWZ-310">
          <mxGeometry width="50" height="50" relative="1" as="geometry">
            <mxPoint x="500" y="330" as="sourcePoint" />
            <mxPoint x="550" y="280" as="targetPoint" />
          </mxGeometry>
        </mxCell>
        <mxCell id="At3crt5vRcggLfKBgVWZ-312" style="edgeStyle=none;rounded=0;orthogonalLoop=1;jettySize=auto;html=1;exitX=0.5;exitY=1;exitDx=0;exitDy=0;entryX=0.5;entryY=0;entryDx=0;entryDy=0;" edge="1" parent="1" source="At3crt5vRcggLfKBgVWZ-314" target="At3crt5vRcggLfKBgVWZ-321">
          <mxGeometry relative="1" as="geometry" />
        </mxCell>
        <mxCell id="At3crt5vRcggLfKBgVWZ-313" style="edgeStyle=none;rounded=0;orthogonalLoop=1;jettySize=auto;html=1;exitX=0.5;exitY=1;exitDx=0;exitDy=0;entryX=0.5;entryY=0;entryDx=0;entryDy=0;" edge="1" parent="1" source="At3crt5vRcggLfKBgVWZ-314" target="At3crt5vRcggLfKBgVWZ-322">
          <mxGeometry relative="1" as="geometry" />
        </mxCell>
        <mxCell id="At3crt5vRcggLfKBgVWZ-314" value="Sustav naplate" style="rounded=0;whiteSpace=wrap;html=1;" vertex="1" parent="1">
          <mxGeometry x="470" y="490" width="100" height="40" as="geometry" />
        </mxCell>
        <mxCell id="At3crt5vRcggLfKBgVWZ-315" value="Ima" style="rhombus;whiteSpace=wrap;html=1;" vertex="1" parent="1">
          <mxGeometry x="495" y="390" width="50" height="50" as="geometry" />
        </mxCell>
        <mxCell id="At3crt5vRcggLfKBgVWZ-316" value="" style="endArrow=none;html=1;rounded=0;exitX=0.5;exitY=1;exitDx=0;exitDy=0;entryX=0.5;entryY=0;entryDx=0;entryDy=0;" edge="1" parent="1" source="At3crt5vRcggLfKBgVWZ-310" target="At3crt5vRcggLfKBgVWZ-315">
          <mxGeometry width="50" height="50" relative="1" as="geometry">
            <mxPoint x="600" y="410" as="sourcePoint" />
            <mxPoint x="650" y="360" as="targetPoint" />
          </mxGeometry>
        </mxCell>
        <mxCell id="At3crt5vRcggLfKBgVWZ-317" value="" style="endArrow=none;html=1;rounded=0;exitX=0.5;exitY=1;exitDx=0;exitDy=0;" edge="1" parent="1" source="At3crt5vRcggLfKBgVWZ-315" target="At3crt5vRcggLfKBgVWZ-314">
          <mxGeometry width="50" height="50" relative="1" as="geometry">
            <mxPoint x="600" y="410" as="sourcePoint" />
            <mxPoint x="650" y="360" as="targetPoint" />
          </mxGeometry>
        </mxCell>
        <mxCell id="At3crt5vRcggLfKBgVWZ-318" value="1" style="text;html=1;strokeColor=none;fillColor=none;align=center;verticalAlign=middle;whiteSpace=wrap;rounded=0;" vertex="1" parent="1">
          <mxGeometry x="510" y="470" width="40" height="20" as="geometry" />
        </mxCell>
        <mxCell id="At3crt5vRcggLfKBgVWZ-319" value="N" style="text;html=1;strokeColor=none;fillColor=none;align=center;verticalAlign=middle;whiteSpace=wrap;rounded=0;" vertex="1" parent="1">
          <mxGeometry x="510" y="340" width="40" height="20" as="geometry" />
        </mxCell>
        <mxCell id="At3crt5vRcggLfKBgVWZ-320" value="Ima" style="rhombus;whiteSpace=wrap;html=1;" vertex="1" parent="1">
          <mxGeometry x="630" y="295" width="60" height="50" as="geometry" />
        </mxCell>
        <mxCell id="At3crt5vRcggLfKBgVWZ-321" value="Sifra" style="ellipse;whiteSpace=wrap;html=1;" vertex="1" parent="1">
          <mxGeometry x="430" y="584" width="80" height="36" as="geometry" />
        </mxCell>
        <mxCell id="At3crt5vRcggLfKBgVWZ-322" value="Naziv" style="ellipse;whiteSpace=wrap;html=1;" vertex="1" parent="1">
          <mxGeometry x="540" y="584" width="80" height="36" as="geometry" />
        </mxCell>
        <mxCell id="At3crt5vRcggLfKBgVWZ-323" value="Sifra" style="ellipse;whiteSpace=wrap;html=1;" vertex="1" parent="1">
          <mxGeometry x="390" y="210" width="80" height="40" as="geometry" />
        </mxCell>
        <mxCell id="At3crt5vRcggLfKBgVWZ-324" value="Naziv" style="ellipse;whiteSpace=wrap;html=1;" vertex="1" parent="1">
          <mxGeometry x="480" y="210" width="80" height="40" as="geometry" />
        </mxCell>
        <mxCell id="At3crt5vRcggLfKBgVWZ-325" value="Iznos" style="ellipse;whiteSpace=wrap;html=1;" vertex="1" parent="1">
          <mxGeometry x="570" y="210" width="80" height="40" as="geometry" />
        </mxCell>
        <mxCell id="At3crt5vRcggLfKBgVWZ-326" value="" style="endArrow=none;html=1;rounded=0;exitX=1;exitY=0.5;exitDx=0;exitDy=0;entryX=0;entryY=0.5;entryDx=0;entryDy=0;" edge="1" parent="1" source="At3crt5vRcggLfKBgVWZ-310" target="At3crt5vRcggLfKBgVWZ-320">
          <mxGeometry width="50" height="50" relative="1" as="geometry">
            <mxPoint x="580" y="380" as="sourcePoint" />
            <mxPoint x="630" y="330" as="targetPoint" />
          </mxGeometry>
        </mxCell>
        <mxCell id="At3crt5vRcggLfKBgVWZ-327" value="" style="endArrow=none;html=1;rounded=0;exitX=0;exitY=0.5;exitDx=0;exitDy=0;entryX=1;entryY=0.5;entryDx=0;entryDy=0;" edge="1" parent="1" target="At3crt5vRcggLfKBgVWZ-320">
          <mxGeometry width="50" height="50" relative="1" as="geometry">
            <mxPoint x="760" y="320" as="sourcePoint" />
            <mxPoint x="630" y="330" as="targetPoint" />
          </mxGeometry>
        </mxCell>
        <mxCell id="At3crt5vRcggLfKBgVWZ-328" value="1" style="text;html=1;strokeColor=none;fillColor=none;align=center;verticalAlign=middle;whiteSpace=wrap;rounded=0;" vertex="1" parent="1">
          <mxGeometry x="560" y="300" width="40" height="20" as="geometry" />
        </mxCell>
        <mxCell id="At3crt5vRcggLfKBgVWZ-329" value="1" style="text;html=1;strokeColor=none;fillColor=none;align=center;verticalAlign=middle;whiteSpace=wrap;rounded=0;" vertex="1" parent="1">
          <mxGeometry x="560" y="300" width="40" height="20" as="geometry" />
        </mxCell>
        <mxCell id="At3crt5vRcggLfKBgVWZ-330" value="N" style="text;html=1;strokeColor=none;fillColor=none;align=center;verticalAlign=middle;whiteSpace=wrap;rounded=0;" vertex="1" parent="1">
          <mxGeometry x="730" y="300" width="40" height="20" as="geometry" />
        </mxCell>
        <mxCell id="At3crt5vRcggLfKBgVWZ-331" style="edgeStyle=none;rounded=0;orthogonalLoop=1;jettySize=auto;html=1;exitX=1;exitY=0.5;exitDx=0;exitDy=0;entryX=0;entryY=0.5;entryDx=0;entryDy=0;" edge="1" parent="1" source="At3crt5vRcggLfKBgVWZ-333" target="At3crt5vRcggLfKBgVWZ-334">
          <mxGeometry relative="1" as="geometry" />
        </mxCell>
        <mxCell id="At3crt5vRcggLfKBgVWZ-332" style="edgeStyle=none;rounded=0;orthogonalLoop=1;jettySize=auto;html=1;exitX=1;exitY=0.5;exitDx=0;exitDy=0;entryX=0;entryY=0.5;entryDx=0;entryDy=0;" edge="1" parent="1" source="At3crt5vRcggLfKBgVWZ-333" target="At3crt5vRcggLfKBgVWZ-335">
          <mxGeometry relative="1" as="geometry" />
        </mxCell>
        <mxCell id="At3crt5vRcggLfKBgVWZ-333" value="Sadržaj" style="rounded=0;whiteSpace=wrap;html=1;" vertex="1" parent="1">
          <mxGeometry x="1040" y="300" width="100" height="40" as="geometry" />
        </mxCell>
        <mxCell id="At3crt5vRcggLfKBgVWZ-334" value="Sifra" style="ellipse;whiteSpace=wrap;html=1;" vertex="1" parent="1">
          <mxGeometry x="1200" y="240" width="80" height="40" as="geometry" />
        </mxCell>
        <mxCell id="At3crt5vRcggLfKBgVWZ-335" value="Naziv" style="ellipse;whiteSpace=wrap;html=1;" vertex="1" parent="1">
          <mxGeometry x="1200" y="330" width="80" height="40" as="geometry" />
        </mxCell>
        <mxCell id="At3crt5vRcggLfKBgVWZ-336" style="edgeStyle=none;rounded=0;orthogonalLoop=1;jettySize=auto;html=1;exitX=1;exitY=0.5;exitDx=0;exitDy=0;entryX=0;entryY=0.5;entryDx=0;entryDy=0;" edge="1" parent="1" source="At3crt5vRcggLfKBgVWZ-338" target="At3crt5vRcggLfKBgVWZ-346">
          <mxGeometry relative="1" as="geometry" />
        </mxCell>
        <mxCell id="At3crt5vRcggLfKBgVWZ-337" style="edgeStyle=none;rounded=0;orthogonalLoop=1;jettySize=auto;html=1;exitX=1;exitY=0.5;exitDx=0;exitDy=0;entryX=0;entryY=0.5;entryDx=0;entryDy=0;" edge="1" parent="1" source="At3crt5vRcggLfKBgVWZ-338" target="At3crt5vRcggLfKBgVWZ-347">
          <mxGeometry relative="1" as="geometry" />
        </mxCell>
        <mxCell id="At3crt5vRcggLfKBgVWZ-338" value="Žanr" style="rounded=0;whiteSpace=wrap;html=1;" vertex="1" parent="1">
          <mxGeometry x="1040" y="70" width="100" height="40" as="geometry" />
        </mxCell>
        <mxCell id="At3crt5vRcggLfKBgVWZ-339" style="edgeStyle=none;rounded=0;orthogonalLoop=1;jettySize=auto;html=1;exitX=1;exitY=0.5;exitDx=0;exitDy=0;entryX=0;entryY=0.5;entryDx=0;entryDy=0;" edge="1" parent="1" source="At3crt5vRcggLfKBgVWZ-341" target="At3crt5vRcggLfKBgVWZ-352">
          <mxGeometry relative="1" as="geometry" />
        </mxCell>
        <mxCell id="At3crt5vRcggLfKBgVWZ-340" style="edgeStyle=none;rounded=0;orthogonalLoop=1;jettySize=auto;html=1;exitX=1;exitY=0.5;exitDx=0;exitDy=0;entryX=0;entryY=0.5;entryDx=0;entryDy=0;" edge="1" parent="1" source="At3crt5vRcggLfKBgVWZ-341" target="At3crt5vRcggLfKBgVWZ-353">
          <mxGeometry relative="1" as="geometry" />
        </mxCell>
        <mxCell id="At3crt5vRcggLfKBgVWZ-341" value="Recenzija" style="rounded=0;whiteSpace=wrap;html=1;" vertex="1" parent="1">
          <mxGeometry x="1040" y="490" width="100" height="40" as="geometry" />
        </mxCell>
        <mxCell id="At3crt5vRcggLfKBgVWZ-342" value="Ima" style="rhombus;whiteSpace=wrap;html=1;" vertex="1" parent="1">
          <mxGeometry x="1065" y="390" width="50" height="50" as="geometry" />
        </mxCell>
        <mxCell id="At3crt5vRcggLfKBgVWZ-343" value="Ima" style="rhombus;whiteSpace=wrap;html=1;" vertex="1" parent="1">
          <mxGeometry x="1060" y="180" width="60" height="50" as="geometry" />
        </mxCell>
        <mxCell id="At3crt5vRcggLfKBgVWZ-344" value="" style="endArrow=none;html=1;rounded=0;entryX=0.5;entryY=1;entryDx=0;entryDy=0;exitX=0.5;exitY=0;exitDx=0;exitDy=0;" edge="1" parent="1" source="At3crt5vRcggLfKBgVWZ-333" target="At3crt5vRcggLfKBgVWZ-343">
          <mxGeometry width="50" height="50" relative="1" as="geometry">
            <mxPoint x="1040" y="330" as="sourcePoint" />
            <mxPoint x="1090" y="280" as="targetPoint" />
          </mxGeometry>
        </mxCell>
        <mxCell id="At3crt5vRcggLfKBgVWZ-345" value="" style="endArrow=none;html=1;rounded=0;entryX=0.5;entryY=1;entryDx=0;entryDy=0;exitX=0.5;exitY=0;exitDx=0;exitDy=0;" edge="1" parent="1" source="At3crt5vRcggLfKBgVWZ-343" target="At3crt5vRcggLfKBgVWZ-338">
          <mxGeometry width="50" height="50" relative="1" as="geometry">
            <mxPoint x="1040" y="330" as="sourcePoint" />
            <mxPoint x="1090" y="280" as="targetPoint" />
          </mxGeometry>
        </mxCell>
        <mxCell id="At3crt5vRcggLfKBgVWZ-346" value="Sifra" style="ellipse;whiteSpace=wrap;html=1;" vertex="1" parent="1">
          <mxGeometry x="1200" y="50" width="80" height="40" as="geometry" />
        </mxCell>
        <mxCell id="At3crt5vRcggLfKBgVWZ-347" value="Naziv" style="ellipse;whiteSpace=wrap;html=1;" vertex="1" parent="1">
          <mxGeometry x="1200" y="140" width="80" height="40" as="geometry" />
        </mxCell>
        <mxCell id="At3crt5vRcggLfKBgVWZ-348" value="1" style="text;html=1;strokeColor=none;fillColor=none;align=center;verticalAlign=middle;whiteSpace=wrap;rounded=0;" vertex="1" parent="1">
          <mxGeometry x="1080" y="280" width="40" height="20" as="geometry" />
        </mxCell>
        <mxCell id="At3crt5vRcggLfKBgVWZ-349" value="N" style="text;html=1;strokeColor=none;fillColor=none;align=center;verticalAlign=middle;whiteSpace=wrap;rounded=0;" vertex="1" parent="1">
          <mxGeometry x="1080" y="110" width="40" height="20" as="geometry" />
        </mxCell>
        <mxCell id="At3crt5vRcggLfKBgVWZ-350" value="" style="endArrow=none;html=1;rounded=0;entryX=0.5;entryY=0;entryDx=0;entryDy=0;exitX=0.5;exitY=1;exitDx=0;exitDy=0;" edge="1" parent="1" source="At3crt5vRcggLfKBgVWZ-342" target="At3crt5vRcggLfKBgVWZ-341">
          <mxGeometry width="50" height="50" relative="1" as="geometry">
            <mxPoint x="1080" y="450" as="sourcePoint" />
            <mxPoint x="1130" y="400" as="targetPoint" />
          </mxGeometry>
        </mxCell>
        <mxCell id="At3crt5vRcggLfKBgVWZ-351" value="" style="endArrow=none;html=1;rounded=0;exitX=0.5;exitY=1;exitDx=0;exitDy=0;entryX=0.5;entryY=0;entryDx=0;entryDy=0;" edge="1" parent="1" source="At3crt5vRcggLfKBgVWZ-333" target="At3crt5vRcggLfKBgVWZ-342">
          <mxGeometry width="50" height="50" relative="1" as="geometry">
            <mxPoint x="1080" y="450" as="sourcePoint" />
            <mxPoint x="1130" y="400" as="targetPoint" />
          </mxGeometry>
        </mxCell>
        <mxCell id="At3crt5vRcggLfKBgVWZ-352" value="Sifra" style="ellipse;whiteSpace=wrap;html=1;" vertex="1" parent="1">
          <mxGeometry x="1200" y="450" width="80" height="40" as="geometry" />
        </mxCell>
        <mxCell id="At3crt5vRcggLfKBgVWZ-353" value="Sadrzaj" style="ellipse;whiteSpace=wrap;html=1;" vertex="1" parent="1">
          <mxGeometry x="1200" y="530" width="80" height="40" as="geometry" />
        </mxCell>
        <mxCell id="At3crt5vRcggLfKBgVWZ-354" value="1" style="text;html=1;strokeColor=none;fillColor=none;align=center;verticalAlign=middle;whiteSpace=wrap;rounded=0;" vertex="1" parent="1">
          <mxGeometry x="1080" y="350" width="40" height="20" as="geometry" />
        </mxCell>
        <mxCell id="At3crt5vRcggLfKBgVWZ-355" value="N" style="text;html=1;strokeColor=none;fillColor=none;align=center;verticalAlign=middle;whiteSpace=wrap;rounded=0;" vertex="1" parent="1">
          <mxGeometry x="1080" y="460" width="40" height="20" as="geometry" />
        </mxCell>
        <mxCell id="At3crt5vRcggLfKBgVWZ-356" value="Kanal" style="rounded=0;whiteSpace=wrap;html=1;" vertex="1" parent="1">
          <mxGeometry x="760" y="300" width="100" height="40" as="geometry" />
        </mxCell>
        <mxCell id="At3crt5vRcggLfKBgVWZ-357" value="" style="endArrow=none;html=1;rounded=0;exitX=1;exitY=0.5;exitDx=0;exitDy=0;entryX=0;entryY=0.5;entryDx=0;entryDy=0;" edge="1" parent="1">
          <mxGeometry width="50" height="50" relative="1" as="geometry">
            <mxPoint x="860" y="319" as="sourcePoint" />
            <mxPoint x="920" y="319" as="targetPoint" />
          </mxGeometry>
        </mxCell>
        <mxCell id="At3crt5vRcggLfKBgVWZ-358" value="1" style="text;html=1;strokeColor=none;fillColor=none;align=center;verticalAlign=middle;whiteSpace=wrap;rounded=0;" vertex="1" parent="1">
          <mxGeometry x="870" y="300" width="40" height="20" as="geometry" />
        </mxCell>
        <mxCell id="At3crt5vRcggLfKBgVWZ-359" value="Ima" style="rhombus;whiteSpace=wrap;html=1;" vertex="1" parent="1">
          <mxGeometry x="920" y="295" width="60" height="50" as="geometry" />
        </mxCell>
        <mxCell id="At3crt5vRcggLfKBgVWZ-360" value="N" style="text;html=1;strokeColor=none;fillColor=none;align=center;verticalAlign=middle;whiteSpace=wrap;rounded=0;" vertex="1" parent="1">
          <mxGeometry x="1000" y="300" width="40" height="20" as="geometry" />
        </mxCell>
        <mxCell id="At3crt5vRcggLfKBgVWZ-361" value="" style="endArrow=none;html=1;rounded=0;exitX=1;exitY=0.5;exitDx=0;exitDy=0;entryX=0;entryY=0.5;entryDx=0;entryDy=0;" edge="1" parent="1">
          <mxGeometry width="50" height="50" relative="1" as="geometry">
            <mxPoint x="980" y="320" as="sourcePoint" />
            <mxPoint x="1040" y="320" as="targetPoint" />
          </mxGeometry>
        </mxCell>
        <mxCell id="At3crt5vRcggLfKBgVWZ-366" style="edgeStyle=none;rounded=0;orthogonalLoop=1;jettySize=auto;html=1;entryX=0.5;entryY=1;entryDx=0;entryDy=0;exitX=0.5;exitY=0;exitDx=0;exitDy=0;" edge="1" parent="1" target="At3crt5vRcggLfKBgVWZ-367" source="At3crt5vRcggLfKBgVWZ-356">
          <mxGeometry relative="1" as="geometry">
            <mxPoint x="790" y="300" as="sourcePoint" />
          </mxGeometry>
        </mxCell>
        <mxCell id="At3crt5vRcggLfKBgVWZ-367" value="Sifra" style="ellipse;whiteSpace=wrap;html=1;" vertex="1" parent="1">
          <mxGeometry x="710" y="205" width="80" height="40" as="geometry" />
        </mxCell>
        <mxCell id="At3crt5vRcggLfKBgVWZ-368" style="edgeStyle=none;rounded=0;orthogonalLoop=1;jettySize=auto;html=1;entryX=0.5;entryY=1;entryDx=0;entryDy=0;" edge="1" parent="1" target="At3crt5vRcggLfKBgVWZ-369">
          <mxGeometry relative="1" as="geometry">
            <mxPoint x="810" y="300" as="sourcePoint" />
          </mxGeometry>
        </mxCell>
        <mxCell id="At3crt5vRcggLfKBgVWZ-369" value="Naziv" style="ellipse;whiteSpace=wrap;html=1;" vertex="1" parent="1">
          <mxGeometry x="820" y="205" width="80" height="40" as="geometry" />
        </mxCell>
      </root>
    </mxGraphModel>
  </diagram>
</mxfile>
